<svg width="85" height="84" xmlns="http://www.w3.org/2000/svg">
 <metadata>Svg Vector Icons : http://www.sfont.cn</metadata>

 <g>
  <title>background</title>
  <rect fill="none" id="canvas_background" height="86" width="87" y="-1" x="-1"/>
 </g>
 <g>
  <title>Layer 1</title>
  <g stroke="null" id="svg_1">
   <path stroke="null" id="svg_2" fill="#ffffff" d="m69.55537,49.169852c4.278985,1.164136 9.140038,-3.500273 10.894108,-10.304174c1.754069,-6.803901 -0.196645,-13.222379 -4.47563,-14.39438c-4.278985,-1.164136 -9.140038,3.500273 -10.894108,10.304174c-1.746204,6.803901 0.196645,13.222379 4.47563,14.39438l0,0zm-36.17473,-17.312585c4.278985,-0.778712 7.000546,-6.803901 5.83641,-13.804447c-1.164136,-7.000546 -5.443121,-12.058243 -9.918751,-11.279531c-4.278985,0.778712 -7.000546,6.803901 -5.83641,13.804447s5.639765,12.058243 9.918751,11.279531l0,0zm-17.501364,17.115941c4.278985,-1.164136 6.025189,-7.582613 4.082341,-14.39438c-1.942848,-6.803901 -7.000546,-11.279531 -11.082886,-10.115395c-4.278985,1.172001 -6.033055,7.590479 -4.090206,14.39438c1.950714,7.000546 6.811767,11.476175 11.090752,10.115395l0,0zm36.17473,-17.115941c4.278985,0.582068 8.754615,-4.47563 9.722106,-11.476175c0.975357,-7.000546 -1.754069,-13.0336 -6.025189,-13.615668c-4.278985,-0.582068 -8.754615,4.47563 -9.722106,11.476175c-1.172001,7.000546 1.549559,13.0336 6.025189,13.615668l0,0zm-24.895199,18.280077c5.443121,-7.19719 6.221833,-14.39438 15.558516,-14.39438c11.082886,0 11.861599,8.754615 15.943939,14.39438c4.082341,5.639765 18.862144,9.722106 11.664954,21.583705c-7.000546,11.67282 -19.058789,-1.754069 -27.616759,-1.754069c-8.55797,0 -21.780349,14.39438 -27.813404,1.754069c-6.410612,-12.632445 5.647631,-13.025734 12.262754,-21.583705l0,0z"/>
  </g>
 </g>
</svg>